<svg width="1295" height="63" viewBox="0 0 1295 63" fill="none" xmlns="http://www.w3.org/2000/svg">
<path d="M1221 21.1328C1226.52 21.1328 1231 16.4318 1231 10.6328C1231 4.83382 1226.52 0.132812 1221 0.132812C1215.48 0.132812 1211 4.83382 1211 10.6328C1211 16.4318 1215.48 21.1328 1221 21.1328Z" fill="#1A0959"/>
<path d="M1221 42.1328C1226.52 42.1328 1231 37.4318 1231 31.6328C1231 25.8338 1226.52 21.1328 1221 21.1328C1215.48 21.1328 1211 25.8338 1211 31.6328C1211 37.4318 1215.48 42.1328 1221 42.1328Z" fill="#1A0959"/>
<path d="M594 21.1328C599.523 21.1328 604 16.4318 604 10.6328C604 4.83382 599.523 0.132812 594 0.132812C588.477 0.132812 584 4.83382 584 10.6328C584 16.4318 588.477 21.1328 594 21.1328Z" fill="#1A0959"/>
<path d="M970 21.1328C975.523 21.1328 980 16.4318 980 10.6328C980 4.83382 975.523 0.132812 970 0.132812C964.477 0.132812 960 4.83382 960 10.6328C960 16.4318 964.477 21.1328 970 21.1328Z" fill="#1A0959"/>
<path d="M594 42.1328C599.523 42.1328 604 37.4318 604 31.6328C604 25.8338 599.523 21.1328 594 21.1328C588.477 21.1328 584 25.8338 584 31.6328C584 37.4318 588.477 42.1328 594 42.1328Z" fill="#1A0959"/>
<path d="M970 42.1328C975.523 42.1328 980 37.4318 980 31.6328C980 25.8338 975.523 21.1328 970 21.1328C964.477 21.1328 960 25.8338 960 31.6328C960 37.4318 964.477 42.1328 970 42.1328Z" fill="#1A0959"/>
<path d="M1241.5 21.1328C1247.3 21.1328 1252 16.4318 1252 10.6328C1252 4.83382 1247.3 0.132812 1241.5 0.132812C1235.7 0.132812 1231 4.83382 1231 10.6328C1231 16.4318 1235.7 21.1328 1241.5 21.1328Z" fill="#1A0959"/>
<path d="M1241.5 42.1328C1247.3 42.1328 1252 37.4318 1252 31.6328C1252 25.8338 1247.3 21.1328 1241.5 21.1328C1235.7 21.1328 1231 25.8338 1231 31.6328C1231 37.4318 1235.7 42.1328 1241.5 42.1328Z" fill="#1A0959"/>
<path d="M614.5 21.1328C620.299 21.1328 625 16.4318 625 10.6328C625 4.83382 620.299 0.132812 614.5 0.132812C608.701 0.132812 604 4.83382 604 10.6328C604 16.4318 608.701 21.1328 614.5 21.1328Z" fill="#1A0959"/>
<path d="M990.5 21.1328C996.299 21.1328 1001 16.4318 1001 10.6328C1001 4.83382 996.299 0.132812 990.5 0.132812C984.701 0.132812 980 4.83382 980 10.6328C980 16.4318 984.701 21.1328 990.5 21.1328Z" fill="#1A0959"/>
<path d="M1178.5 21.1328C1184.3 21.1328 1189 16.4318 1189 10.6328C1189 4.83382 1184.3 0.132812 1178.5 0.132812C1172.7 0.132812 1168 4.83382 1168 10.6328C1168 16.4318 1172.7 21.1328 1178.5 21.1328Z" fill="#1A0959"/>
<path d="M614.5 42.1328C620.299 42.1328 625 37.4318 625 31.6328C625 25.8338 620.299 21.1328 614.5 21.1328C608.701 21.1328 604 25.8338 604 31.6328C604 37.4318 608.701 42.1328 614.5 42.1328Z" fill="#1A0959"/>
<path d="M990.5 42.1328C996.299 42.1328 1001 37.4318 1001 31.6328C1001 25.8338 996.299 21.1328 990.5 21.1328C984.701 21.1328 980 25.8338 980 31.6328C980 37.4318 984.701 42.1328 990.5 42.1328Z" fill="#1A0959"/>
<path d="M1178.5 42.1328C1184.3 42.1328 1189 37.4318 1189 31.6328C1189 25.8338 1184.3 21.1328 1178.5 21.1328C1172.7 21.1328 1168 25.8338 1168 31.6328C1168 37.4318 1172.7 42.1328 1178.5 42.1328Z" fill="#1A0959"/>
<path d="M552.5 21.1328C558.299 21.1328 563 16.4318 563 10.6328C563 4.83382 558.299 0.132812 552.5 0.132812C546.701 0.132812 542 4.83382 542 10.6328C542 16.4318 546.701 21.1328 552.5 21.1328Z" fill="#1A0959"/>
<path d="M1200 21.1328C1206.08 21.1328 1211 16.4318 1211 10.6328C1211 4.83382 1206.08 0.132812 1200 0.132812C1193.92 0.132812 1189 4.83382 1189 10.6328C1189 16.4318 1193.92 21.1328 1200 21.1328Z" fill="white"/>
<path d="M928.5 21.1328C934.299 21.1328 939 16.4318 939 10.6328C939 4.83382 934.299 0.132812 928.5 0.132812C922.701 0.132812 918 4.83382 918 10.6328C918 16.4318 922.701 21.1328 928.5 21.1328Z" fill="#1A0959"/>
<path d="M1263.5 21.1328C1269.3 21.1328 1274 16.4318 1274 10.6328C1274 4.83382 1269.3 0.132812 1263.5 0.132812C1257.7 0.132812 1253 4.83382 1253 10.6328C1253 16.4318 1257.7 21.1328 1263.5 21.1328Z" fill="#1A0959"/>
<path d="M1200 42.1328C1206.08 42.1328 1211 37.4318 1211 31.6328C1211 25.8338 1206.08 21.1328 1200 21.1328C1193.92 21.1328 1189 25.8338 1189 31.6328C1189 37.4318 1193.92 42.1328 1200 42.1328Z" fill="#1A0959"/>
<path d="M552.5 42.1328C558.299 42.1328 563 37.4318 563 31.6328C563 25.8338 558.299 21.1328 552.5 21.1328C546.701 21.1328 542 25.8338 542 31.6328C542 37.4318 546.701 42.1328 552.5 42.1328Z" fill="#1A0959"/>
<path d="M928.5 42.1328C934.299 42.1328 939 37.4318 939 31.6328C939 25.8338 934.299 21.1328 928.5 21.1328C922.701 21.1328 918 25.8338 918 31.6328C918 37.4318 922.701 42.1328 928.5 42.1328Z" fill="#1A0959"/>
<path d="M1263.5 42.1328C1269.3 42.1328 1274 37.4318 1274 31.6328C1274 25.8338 1269.3 21.1328 1263.5 21.1328C1257.7 21.1328 1253 25.8338 1253 31.6328C1253 37.4318 1257.7 42.1328 1263.5 42.1328Z" fill="#1A0959"/>
<path d="M573.5 21.1328C579.299 21.1328 584 16.4318 584 10.6328C584 4.83382 579.299 0.132812 573.5 0.132812C567.701 0.132812 563 4.83382 563 10.6328C563 16.4318 567.701 21.1328 573.5 21.1328Z" fill="white"/>
<path d="M949.5 21.1328C955.299 21.1328 960 16.4318 960 10.6328C960 4.83382 955.299 0.132812 949.5 0.132812C943.701 0.132812 939 4.83382 939 10.6328C939 16.4318 943.701 21.1328 949.5 21.1328Z" fill="white"/>
<path d="M1284.5 21.1328C1290.3 21.1328 1295 16.4318 1295 10.6328C1295 4.83382 1290.3 0.132812 1284.5 0.132812C1278.7 0.132812 1274 4.83382 1274 10.6328C1274 16.4318 1278.7 21.1328 1284.5 21.1328Z" fill="white"/>
<path d="M573.5 42.1328C579.299 42.1328 584 37.4318 584 31.6328C584 25.8338 579.299 21.1328 573.5 21.1328C567.701 21.1328 563 25.8338 563 31.6328C563 37.4318 567.701 42.1328 573.5 42.1328Z" fill="#1A0959"/>
<path d="M949.5 42.1328C955.299 42.1328 960 37.4318 960 31.6328C960 25.8338 955.299 21.1328 949.5 21.1328C943.701 21.1328 939 25.8338 939 31.6328C939 37.4318 943.701 42.1328 949.5 42.1328Z" fill="#1A0959"/>
<path d="M1284.5 42.1328C1290.3 42.1328 1295 37.4318 1295 31.6328C1295 25.8338 1290.3 21.1328 1284.5 21.1328C1278.7 21.1328 1274 25.8338 1274 31.6328C1274 37.4318 1278.7 42.1328 1284.5 42.1328Z" fill="#1A0959"/>
<path d="M511.5 21.1328C517.299 21.1328 522 16.4318 522 10.6328C522 4.83382 517.299 0.132812 511.5 0.132812C505.701 0.132812 501 4.83382 501 10.6328C501 16.4318 505.701 21.1328 511.5 21.1328Z" fill="#1A0959"/>
<path d="M887.5 21.1328C893.299 21.1328 898 16.4318 898 10.6328C898 4.83382 893.299 0.132812 887.5 0.132812C881.701 0.132812 877 4.83382 877 10.6328C877 16.4318 881.701 21.1328 887.5 21.1328Z" fill="#1A0959"/>
<path d="M1137.5 21.1328C1143.3 21.1328 1148 16.4318 1148 10.6328C1148 4.83382 1143.3 0.132812 1137.5 0.132812C1131.7 0.132812 1127 4.83382 1127 10.6328C1127 16.4318 1131.7 21.1328 1137.5 21.1328Z" fill="#1A0959"/>
<path d="M511.5 42.1328C517.299 42.1328 522 37.4318 522 31.6328C522 25.8338 517.299 21.1328 511.5 21.1328C505.701 21.1328 501 25.8338 501 31.6328C501 37.4318 505.701 42.1328 511.5 42.1328Z" fill="#1A0959"/>
<path d="M887.5 42.1328C893.299 42.1328 898 37.4318 898 31.6328C898 25.8338 893.299 21.1328 887.5 21.1328C881.701 21.1328 877 25.8338 877 31.6328C877 37.4318 881.701 42.1328 887.5 42.1328Z" fill="#1A0959"/>
<path d="M1137.5 42.1328C1143.3 42.1328 1148 37.4318 1148 31.6328C1148 25.8338 1143.3 21.1328 1137.5 21.1328C1131.7 21.1328 1127 25.8338 1127 31.6328C1127 37.4318 1131.7 42.1328 1137.5 42.1328Z" fill="#1A0959"/>
<path d="M532 21.1328C537.523 21.1328 542 16.4318 542 10.6328C542 4.83382 537.523 0.132812 532 0.132812C526.477 0.132812 522 4.83382 522 10.6328C522 16.4318 526.477 21.1328 532 21.1328Z" fill="#1A0959"/>
<path d="M908 21.1328C913.523 21.1328 918 16.4318 918 10.6328C918 4.83382 913.523 0.132812 908 0.132812C902.477 0.132812 898 4.83382 898 10.6328C898 16.4318 902.477 21.1328 908 21.1328Z" fill="#1A0959"/>
<path d="M1158 21.1328C1163.52 21.1328 1168 16.4318 1168 10.6328C1168 4.83382 1163.52 0.132812 1158 0.132812C1152.48 0.132812 1148 4.83382 1148 10.6328C1148 16.4318 1152.48 21.1328 1158 21.1328Z" fill="#1A0959"/>
<path d="M532 42.1328C537.523 42.1328 542 37.4318 542 31.6328C542 25.8338 537.523 21.1328 532 21.1328C526.477 21.1328 522 25.8338 522 31.6328C522 37.4318 526.477 42.1328 532 42.1328Z" fill="white"/>
<path d="M908 42.1328C913.523 42.1328 918 37.4318 918 31.6328C918 25.8338 913.523 21.1328 908 21.1328C902.477 21.1328 898 25.8338 898 31.6328C898 37.4318 902.477 42.1328 908 42.1328Z" fill="white"/>
<path d="M1158 42.1328C1163.52 42.1328 1168 37.4318 1168 31.6328C1168 25.8338 1163.52 21.1328 1158 21.1328C1152.48 21.1328 1148 25.8338 1148 31.6328C1148 37.4318 1152.48 42.1328 1158 42.1328Z" fill="white"/>
<path d="M469 21.1328C475.075 21.1328 480 16.4318 480 10.6328C480 4.83382 475.075 0.132812 469 0.132812C462.925 0.132812 458 4.83382 458 10.6328C458 16.4318 462.925 21.1328 469 21.1328Z" fill="#1A0959"/>
<path d="M845.5 21.1328C851.299 21.1328 856 16.4318 856 10.6328C856 4.83382 851.299 0.132812 845.5 0.132812C839.701 0.132812 835 4.83382 835 10.6328C835 16.4318 839.701 21.1328 845.5 21.1328Z" fill="#1A0959"/>
<path d="M1095.5 21.1328C1101.3 21.1328 1106 16.4318 1106 10.6328C1106 4.83382 1101.3 0.132812 1095.5 0.132812C1089.7 0.132812 1085 4.83382 1085 10.6328C1085 16.4318 1089.7 21.1328 1095.5 21.1328Z" fill="#1A0959"/>
<path d="M469 42.1328C475.075 42.1328 480 37.4318 480 31.6328C480 25.8338 475.075 21.1328 469 21.1328C462.925 21.1328 458 25.8338 458 31.6328C458 37.4318 462.925 42.1328 469 42.1328Z" fill="#1A0959"/>
<path d="M845.5 42.1328C851.299 42.1328 856 37.4318 856 31.6328C856 25.8338 851.299 21.1328 845.5 21.1328C839.701 21.1328 835 25.8338 835 31.6328C835 37.4318 839.701 42.1328 845.5 42.1328Z" fill="#1A0959"/>
<path d="M1095.5 42.1328C1101.3 42.1328 1106 37.4318 1106 31.6328C1106 25.8338 1101.3 21.1328 1095.5 21.1328C1089.7 21.1328 1085 25.8338 1085 31.6328C1085 37.4318 1089.7 42.1328 1095.5 42.1328Z" fill="#1A0959"/>
<path d="M490.5 21.1328C496.299 21.1328 501 16.4318 501 10.6328C501 4.83382 496.299 0.132812 490.5 0.132812C484.701 0.132812 480 4.83382 480 10.6328C480 16.4318 484.701 21.1328 490.5 21.1328Z" fill="#1A0959"/>
<path d="M866.5 21.1328C872.299 21.1328 877 16.4318 877 10.6328C877 4.83382 872.299 0.132812 866.5 0.132812C860.701 0.132812 856 4.83382 856 10.6328C856 16.4318 860.701 21.1328 866.5 21.1328Z" fill="#1A0959"/>
<path d="M1116.5 21.1328C1122.3 21.1328 1127 16.4318 1127 10.6328C1127 4.83382 1122.3 0.132812 1116.5 0.132812C1110.7 0.132812 1106 4.83382 1106 10.6328C1106 16.4318 1110.7 21.1328 1116.5 21.1328Z" fill="#1A0959"/>
<path d="M490.5 42.1328C496.299 42.1328 501 37.4318 501 31.6328C501 25.8338 496.299 21.1328 490.5 21.1328C484.701 21.1328 480 25.8338 480 31.6328C480 37.4318 484.701 42.1328 490.5 42.1328Z" fill="#F21A05"/>
<path d="M866.5 42.1328C872.299 42.1328 877 37.4318 877 31.6328C877 25.8338 872.299 21.1328 866.5 21.1328C860.701 21.1328 856 25.8338 856 31.6328C856 37.4318 860.701 42.1328 866.5 42.1328Z" fill="#F21A05"/>
<path d="M1116.5 42.1328C1122.3 42.1328 1127 37.4318 1127 31.6328C1127 25.8338 1122.3 21.1328 1116.5 21.1328C1110.7 21.1328 1106 25.8338 1106 31.6328C1106 37.4318 1110.7 42.1328 1116.5 42.1328Z" fill="#F21A05"/>
<path d="M427.5 21.1328C433.299 21.1328 438 16.4318 438 10.6328C438 4.83382 433.299 0.132812 427.5 0.132812C421.701 0.132812 417 4.83382 417 10.6328C417 16.4318 421.701 21.1328 427.5 21.1328Z" fill="#1A0959"/>
<path d="M803.5 21.1328C809.299 21.1328 814 16.4318 814 10.6328C814 4.83382 809.299 0.132812 803.5 0.132812C797.701 0.132812 793 4.83382 793 10.6328C793 16.4318 797.701 21.1328 803.5 21.1328Z" fill="#1A0959"/>
<path d="M1054.5 21.1328C1060.3 21.1328 1065 16.4318 1065 10.6328C1065 4.83382 1060.3 0.132812 1054.5 0.132812C1048.7 0.132812 1044 4.83382 1044 10.6328C1044 16.4318 1048.7 21.1328 1054.5 21.1328Z" fill="#1A0959"/>
<path d="M427.5 42.1328C433.299 42.1328 438 37.4318 438 31.6328C438 25.8338 433.299 21.1328 427.5 21.1328C421.701 21.1328 417 25.8338 417 31.6328C417 37.4318 421.701 42.1328 427.5 42.1328Z" fill="#1A0959"/>
<path d="M803.5 42.1328C809.299 42.1328 814 37.4318 814 31.6328C814 25.8338 809.299 21.1328 803.5 21.1328C797.701 21.1328 793 25.8338 793 31.6328C793 37.4318 797.701 42.1328 803.5 42.1328Z" fill="#1A0959"/>
<path d="M1054.5 42.1328C1060.3 42.1328 1065 37.4318 1065 31.6328C1065 25.8338 1060.3 21.1328 1054.5 21.1328C1048.7 21.1328 1044 25.8338 1044 31.6328C1044 37.4318 1048.7 42.1328 1054.5 42.1328Z" fill="#1A0959"/>
<path d="M448 21.1328C453.523 21.1328 458 16.4318 458 10.6328C458 4.83382 453.523 0.132812 448 0.132812C442.477 0.132812 438 4.83382 438 10.6328C438 16.4318 442.477 21.1328 448 21.1328Z" fill="#1A0959"/>
<path d="M824.5 21.1328C830.299 21.1328 835 16.4318 835 10.6328C835 4.83382 830.299 0.132812 824.5 0.132812C818.701 0.132812 814 4.83382 814 10.6328C814 16.4318 818.701 21.1328 824.5 21.1328Z" fill="#1A0959"/>
<path d="M1075 21.1328C1080.52 21.1328 1085 16.4318 1085 10.6328C1085 4.83382 1080.52 0.132812 1075 0.132812C1069.48 0.132812 1065 4.83382 1065 10.6328C1065 16.4318 1069.48 21.1328 1075 21.1328Z" fill="#1A0959"/>
<path d="M448 42.1328C453.523 42.1328 458 37.4318 458 31.6328C458 25.8338 453.523 21.1328 448 21.1328C442.477 21.1328 438 25.8338 438 31.6328C438 37.4318 442.477 42.1328 448 42.1328Z" fill="white"/>
<path d="M824.5 42.1328C830.299 42.1328 835 37.4318 835 31.6328C835 25.8338 830.299 21.1328 824.5 21.1328C818.701 21.1328 814 25.8338 814 31.6328C814 37.4318 818.701 42.1328 824.5 42.1328Z" fill="white"/>
<path d="M1075 42.1328C1080.52 42.1328 1085 37.4318 1085 31.6328C1085 25.8338 1080.52 21.1328 1075 21.1328C1069.48 21.1328 1065 25.8338 1065 31.6328C1065 37.4318 1069.48 42.1328 1075 42.1328Z" fill="white"/>
<path d="M344 21.1328C349.523 21.1328 354 16.4318 354 10.6328C354 4.83382 349.523 0.132812 344 0.132812C338.477 0.132812 334 4.83382 334 10.6328C334 16.4318 338.477 21.1328 344 21.1328Z" fill="#1A0959"/>
<path d="M720 21.1328C725.523 21.1328 730 16.4318 730 10.6328C730 4.83382 725.523 0.132812 720 0.132812C714.477 0.132812 710 4.83382 710 10.6328C710 16.4318 714.477 21.1328 720 21.1328Z" fill="#1A0959"/>
<path d="M364.5 21.1328C370.299 21.1328 375 16.4318 375 10.6328C375 4.83382 370.299 0.132812 364.5 0.132812C358.701 0.132812 354 4.83382 354 10.6328C354 16.4318 358.701 21.1328 364.5 21.1328Z" fill="#1A0959"/>
<path d="M740.5 21.1328C746.299 21.1328 751 16.4318 751 10.6328C751 4.83382 746.299 0.132812 740.5 0.132812C734.701 0.132812 730 4.83382 730 10.6328C730 16.4318 734.701 21.1328 740.5 21.1328Z" fill="#1A0959"/>
<path d="M364.5 42.1328C370.299 42.1328 375 37.4318 375 31.6328C375 25.8338 370.299 21.1328 364.5 21.1328C358.701 21.1328 354 25.8338 354 31.6328C354 37.4318 358.701 42.1328 364.5 42.1328Z" fill="#1A0959"/>
<path d="M740.5 42.1328C746.299 42.1328 751 37.4318 751 31.6328C751 25.8338 746.299 21.1328 740.5 21.1328C734.701 21.1328 730 25.8338 730 31.6328C730 37.4318 734.701 42.1328 740.5 42.1328Z" fill="#1A0959"/>
<path d="M302.5 21.1328C308.299 21.1328 313 16.4318 313 10.6328C313 4.83382 308.299 0.132812 302.5 0.132812C296.701 0.132812 292 4.83382 292 10.6328C292 16.4318 296.701 21.1328 302.5 21.1328Z" fill="#1A0959"/>
<path d="M678.5 21.1328C684.299 21.1328 689 16.4318 689 10.6328C689 4.83382 684.299 0.132812 678.5 0.132812C672.701 0.132812 668 4.83382 668 10.6328C668 16.4318 672.701 21.1328 678.5 21.1328Z" fill="#1A0959"/>
<path d="M302.5 42.1328C308.299 42.1328 313 37.4318 313 31.6328C313 25.8338 308.299 21.1328 302.5 21.1328C296.701 21.1328 292 25.8338 292 31.6328C292 37.4318 296.701 42.1328 302.5 42.1328Z" fill="#1A0959"/>
<path d="M678.5 42.1328C684.299 42.1328 689 37.4318 689 31.6328C689 25.8338 684.299 21.1328 678.5 21.1328C672.701 21.1328 668 25.8338 668 31.6328C668 37.4318 672.701 42.1328 678.5 42.1328Z" fill="#1A0959"/>
<path d="M323.5 21.1328C329.299 21.1328 334 16.4318 334 10.6328C334 4.83382 329.299 0.132812 323.5 0.132812C317.701 0.132812 313 4.83382 313 10.6328C313 16.4318 317.701 21.1328 323.5 21.1328Z" fill="white"/>
<path d="M699.5 21.1328C705.299 21.1328 710 16.4318 710 10.6328C710 4.83382 705.299 0.132812 699.5 0.132812C693.701 0.132812 689 4.83382 689 10.6328C689 16.4318 693.701 21.1328 699.5 21.1328Z" fill="white"/>
<path d="M323.5 42.1328C329.299 42.1328 334 37.4318 334 31.6328C334 25.8338 329.299 21.1328 323.5 21.1328C317.701 21.1328 313 25.8338 313 31.6328C313 37.4318 317.701 42.1328 323.5 42.1328Z" fill="#1A0959"/>
<path d="M699.5 42.1328C705.299 42.1328 710 37.4318 710 31.6328C710 25.8338 705.299 21.1328 699.5 21.1328C693.701 21.1328 689 25.8338 689 31.6328C689 37.4318 693.701 42.1328 699.5 42.1328Z" fill="#1A0959"/>
<path d="M260.5 21.1328C266.299 21.1328 271 16.4318 271 10.6328C271 4.83382 266.299 0.132812 260.5 0.132812C254.701 0.132812 250 4.83382 250 10.6328C250 16.4318 254.701 21.1328 260.5 21.1328Z" fill="#1A0959"/>
<path d="M637 21.1328C643.075 21.1328 648 16.4318 648 10.6328C648 4.83382 643.075 0.132812 637 0.132812C630.925 0.132812 626 4.83382 626 10.6328C626 16.4318 630.925 21.1328 637 21.1328Z" fill="#1A0959"/>
<path d="M260.5 42.1328C266.299 42.1328 271 37.4318 271 31.6328C271 25.8338 266.299 21.1328 260.5 21.1328C254.701 21.1328 250 25.8338 250 31.6328C250 37.4318 254.701 42.1328 260.5 42.1328Z" fill="#1A0959"/>
<path d="M637 42.1328C643.075 42.1328 648 37.4318 648 31.6328C648 25.8338 643.075 21.1328 637 21.1328C630.925 21.1328 626 25.8338 626 31.6328C626 37.4318 630.925 42.1328 637 42.1328Z" fill="#1A0959"/>
<path d="M281.5 21.1328C287.299 21.1328 292 16.4318 292 10.6328C292 4.83382 287.299 0.132812 281.5 0.132812C275.701 0.132812 271 4.83382 271 10.6328C271 16.4318 275.701 21.1328 281.5 21.1328Z" fill="#6944F0"/>
<path d="M658 21.1328C663.523 21.1328 668 16.4318 668 10.6328C668 4.83382 663.523 0.132812 658 0.132812C652.477 0.132812 648 4.83382 648 10.6328C648 16.4318 652.477 21.1328 658 21.1328Z" fill="#6944F0"/>
<path d="M218.5 21.1328C224.299 21.1328 229 16.4318 229 10.6328C229 4.83382 224.299 0.132812 218.5 0.132812C212.701 0.132812 208 4.83382 208 10.6328C208 16.4318 212.701 21.1328 218.5 21.1328Z" fill="#1A0959"/>
<path d="M239.5 42.1328C245.299 42.1328 250 37.4318 250 31.6328C250 25.8338 245.299 21.1328 239.5 21.1328C233.701 21.1328 229 25.8338 229 31.6328C229 37.4318 233.701 42.1328 239.5 42.1328Z" fill="#1A0959"/>
<path d="M177 21.1328C182.523 21.1328 187 16.4318 187 10.6328C187 4.83382 182.523 0.132812 177 0.132812C171.477 0.132812 167 4.83382 167 10.6328C167 16.4318 171.477 21.1328 177 21.1328Z" fill="#6944F0"/>
<path d="M177 42.1328C182.523 42.1328 187 37.4318 187 31.6328C187 25.8338 182.523 21.1328 177 21.1328C171.477 21.1328 167 25.8338 167 31.6328C167 37.4318 171.477 42.1328 177 42.1328Z" fill="#1A0959"/>
<path d="M197.928 1.39111C203.318 1.39111 207.665 5.73831 207.665 11.1288H209.057C209.057 4.9732 204.083 0 197.928 0V1.39111ZM188.19 11.1288C188.19 5.73831 192.537 1.39111 197.928 1.39111V0C191.772 0 186.799 4.9732 186.799 11.1288H188.19ZM197.928 20.8666C192.537 20.8666 188.19 16.5194 188.19 11.1288H186.799C186.799 17.2845 191.772 22.2577 197.928 22.2577V20.8666ZM207.665 11.1288C207.665 16.5194 203.318 20.8666 197.928 20.8666V22.2577C204.083 22.2577 209.057 17.2845 209.057 11.1288H207.665Z" fill="#1A0959"/>
<path d="M156.5 42.1328C162.299 42.1328 167 37.4318 167 31.6328C167 25.8338 162.299 21.1328 156.5 21.1328C150.701 21.1328 146 25.8338 146 31.6328C146 37.4318 150.701 42.1328 156.5 42.1328Z" fill="#6944F0"/>
<path d="M135.5 21.1328C141.299 21.1328 146 16.4318 146 10.6328C146 4.83382 141.299 0.132812 135.5 0.132812C129.701 0.132812 125 4.83382 125 10.6328C125 16.4318 129.701 21.1328 135.5 21.1328Z" fill="#1A0959"/>
<path d="M135.5 42.1328C141.299 42.1328 146 37.4318 146 31.6328C146 25.8338 141.299 21.1328 135.5 21.1328C129.701 21.1328 125 25.8338 125 31.6328C125 37.4318 129.701 42.1328 135.5 42.1328Z" fill="#1A0959"/>
<path d="M156.5 21.1328C162.299 21.1328 167 16.4318 167 10.6328C167 4.83382 162.299 0.132812 156.5 0.132812C150.701 0.132812 146 4.83382 146 10.6328C146 16.4318 150.701 21.1328 156.5 21.1328Z" fill="#1A0959"/>
<path d="M93.5 21.1328C99.299 21.1328 104 16.4318 104 10.6328C104 4.83382 99.299 0.132812 93.5 0.132812C87.701 0.132812 83 4.83382 83 10.6328C83 16.4318 87.701 21.1328 93.5 21.1328Z" fill="#1A0959"/>
<path d="M93.5 42.1328C99.299 42.1328 104 37.4318 104 31.6328C104 25.8338 99.299 21.1328 93.5 21.1328C87.701 21.1328 83 25.8338 83 31.6328C83 37.4318 87.701 42.1328 93.5 42.1328Z" fill="#1A0959"/>
<path d="M114.5 21.1328C120.299 21.1328 125 16.4318 125 10.6328C125 4.83382 120.299 0.132812 114.5 0.132812C108.701 0.132812 104 4.83382 104 10.6328C104 16.4318 108.701 21.1328 114.5 21.1328Z" fill="#F21A05"/>
<path d="M51.5 21.1328C57.299 21.1328 62 16.4318 62 10.6328C62 4.83382 57.299 0.132812 51.5 0.132812C45.701 0.132812 41 4.83382 41 10.6328C41 16.4318 45.701 21.1328 51.5 21.1328Z" fill="#1A0959"/>
<path d="M51.8632 22.2583C57.2538 22.2583 61.601 26.6055 61.601 31.996H62.9921C62.9921 25.8404 58.0189 20.8672 51.8632 20.8672V22.2583ZM42.1255 31.996C42.1255 26.6055 46.4727 22.2583 51.8632 22.2583V20.8672C45.7076 20.8672 40.7344 25.8404 40.7344 31.996H42.1255ZM51.8632 41.7338C46.4727 41.7338 42.1255 37.3866 42.1255 31.996H40.7344C40.7344 38.1517 45.7076 43.1249 51.8632 43.1249V41.7338ZM61.601 31.996C61.601 37.3866 57.2538 41.7338 51.8632 41.7338V43.1249C58.0189 43.1249 62.9921 38.1517 62.9921 31.996H61.601Z" fill="#1A0959"/>
<path d="M72.7285 1.39111C78.119 1.39111 82.4662 5.73831 82.4662 11.1288H83.8573C83.8573 4.9732 78.8841 0 72.7285 0V1.39111ZM62.9907 11.1288C62.9907 5.73831 67.3379 1.39111 72.7285 1.39111V0C66.5728 0 61.5996 4.9732 61.5996 11.1288H62.9907ZM72.7285 20.8666C67.3379 20.8666 62.9907 16.5194 62.9907 11.1288H61.5996C61.5996 17.2845 66.5728 22.2577 72.7285 22.2577V20.8666ZM82.4662 11.1288C82.4662 16.5194 78.119 20.8666 72.7285 20.8666V22.2577C78.8841 22.2577 83.8573 17.2845 83.8573 11.1288H82.4662Z" fill="#1A0959"/>
<path d="M10.5 21.1328C16.299 21.1328 21 16.4318 21 10.6328C21 4.83382 16.299 0.132812 10.5 0.132812C4.70101 0.132812 0 4.83382 0 10.6328C0 16.4318 4.70101 21.1328 10.5 21.1328Z" fill="white"/>
<path d="M10.5 42.1328C16.299 42.1328 21 37.4318 21 31.6328C21 25.8338 16.299 21.1328 10.5 21.1328C4.70101 21.1328 0 25.8338 0 31.6328C0 37.4318 4.70101 42.1328 10.5 42.1328Z" fill="#1A0959"/>
<path d="M31 21.1328C36.5228 21.1328 41 16.4318 41 10.6328C41 4.83382 36.5228 0.132812 31 0.132812C25.4772 0.132812 21 4.83382 21 10.6328C21 16.4318 25.4772 21.1328 31 21.1328Z" fill="white"/>
<path d="M31 42.1328C36.5228 42.1328 41 37.4318 41 31.6328C41 25.8338 36.5228 21.1328 31 21.1328C25.4772 21.1328 21 25.8338 21 31.6328C21 37.4318 25.4772 42.1328 31 42.1328Z" fill="#1A0959"/>
<path d="M385.5 21.1328C391.299 21.1328 396 16.4318 396 10.6328C396 4.83382 391.299 0.132812 385.5 0.132812C379.701 0.132812 375 4.83382 375 10.6328C375 16.4318 379.701 21.1328 385.5 21.1328Z" fill="#1A0959"/>
<path d="M761.5 21.1328C767.299 21.1328 772 16.4318 772 10.6328C772 4.83382 767.299 0.132812 761.5 0.132812C755.701 0.132812 751 4.83382 751 10.6328C751 16.4318 755.701 21.1328 761.5 21.1328Z" fill="#1A0959"/>
<path d="M1012 21.1328C1018.08 21.1328 1023 16.4318 1023 10.6328C1023 4.83382 1018.08 0.132812 1012 0.132812C1005.92 0.132812 1001 4.83382 1001 10.6328C1001 16.4318 1005.92 21.1328 1012 21.1328Z" fill="#1A0959"/>
<path d="M385.5 42.1328C391.299 42.1328 396 37.4318 396 31.6328C396 25.8338 391.299 21.1328 385.5 21.1328C379.701 21.1328 375 25.8338 375 31.6328C375 37.4318 379.701 42.1328 385.5 42.1328Z" fill="#6944F0"/>
<path d="M761.5 42.1328C767.299 42.1328 772 37.4318 772 31.6328C772 25.8338 767.299 21.1328 761.5 21.1328C755.701 21.1328 751 25.8338 751 31.6328C751 37.4318 755.701 42.1328 761.5 42.1328Z" fill="#6944F0"/>
<path d="M1012 42.1328C1018.08 42.1328 1023 37.4318 1023 31.6328C1023 25.8338 1018.08 21.1328 1012 21.1328C1005.92 21.1328 1001 25.8338 1001 31.6328C1001 37.4318 1005.92 42.1328 1012 42.1328Z" fill="#6944F0"/>
<path d="M1221 63.1328C1226.52 63.1328 1231 58.4318 1231 52.6328C1231 46.8338 1226.52 42.1328 1221 42.1328C1215.48 42.1328 1211 46.8338 1211 52.6328C1211 58.4318 1215.48 63.1328 1221 63.1328Z" fill="white"/>
<path d="M406.5 21.1328C412.299 21.1328 417 16.4318 417 10.6328C417 4.83382 412.299 0.132812 406.5 0.132812C400.701 0.132812 396 4.83382 396 10.6328C396 16.4318 400.701 21.1328 406.5 21.1328Z" fill="#6944F0"/>
<path d="M782.5 21.1328C788.299 21.1328 793 16.4318 793 10.6328C793 4.83382 788.299 0.132812 782.5 0.132812C776.701 0.132812 772 4.83382 772 10.6328C772 16.4318 776.701 21.1328 782.5 21.1328Z" fill="#6944F0"/>
<path d="M1033.5 21.1328C1039.3 21.1328 1044 16.4318 1044 10.6328C1044 4.83382 1039.3 0.132812 1033.5 0.132812C1027.7 0.132812 1023 4.83382 1023 10.6328C1023 16.4318 1027.7 21.1328 1033.5 21.1328Z" fill="#6944F0"/>
<path d="M406.5 42.1328C412.299 42.1328 417 37.4318 417 31.6328C417 25.8338 412.299 21.1328 406.5 21.1328C400.701 21.1328 396 25.8338 396 31.6328C396 37.4318 400.701 42.1328 406.5 42.1328Z" fill="#1A0959"/>
<path d="M1241.5 63.1328C1247.3 63.1328 1252 58.4318 1252 52.6328C1252 46.8338 1247.3 42.1328 1241.5 42.1328C1235.7 42.1328 1231 46.8338 1231 52.6328C1231 58.4318 1235.7 63.1328 1241.5 63.1328Z" fill="#1A0959"/>
<path d="M782.5 42.1328C788.299 42.1328 793 37.4318 793 31.6328C793 25.8338 788.299 21.1328 782.5 21.1328C776.701 21.1328 772 25.8338 772 31.6328C772 37.4318 776.701 42.1328 782.5 42.1328Z" fill="#1A0959"/>
<path d="M1033.5 42.1328C1039.3 42.1328 1044 37.4318 1044 31.6328C1044 25.8338 1039.3 21.1328 1033.5 21.1328C1027.7 21.1328 1023 25.8338 1023 31.6328C1023 37.4318 1027.7 42.1328 1033.5 42.1328Z" fill="#1A0959"/>
<path d="M1241.64 63.9907C1247.03 63.9907 1251.38 68.3379 1251.38 73.7285H1252.77C1252.77 67.5728 1247.8 62.5996 1241.64 62.5996V63.9907ZM1231.9 73.7285C1231.9 68.3379 1236.25 63.9907 1241.64 63.9907V62.5996C1235.49 62.5996 1230.51 67.5728 1230.51 73.7285H1231.9ZM1241.64 83.4662C1236.25 83.4662 1231.9 79.119 1231.9 73.7285H1230.51C1230.51 79.8841 1235.49 84.8573 1241.64 84.8573V83.4662ZM1251.38 73.7285C1251.38 79.119 1247.03 83.4662 1241.64 83.4662V84.8573C1247.8 84.8573 1252.77 79.8841 1252.77 73.7285H1251.38Z" fill="#1A0959"/>
<path d="M1178.5 63.1328C1184.3 63.1328 1189 58.4318 1189 52.6328C1189 46.8338 1184.3 42.1328 1178.5 42.1328C1172.7 42.1328 1168 46.8338 1168 52.6328C1168 58.4318 1172.7 63.1328 1178.5 63.1328Z" fill="#1A0959"/>
<path d="M594 63.1328C599.523 63.1328 604 58.4318 604 52.6328C604 46.8338 599.523 42.1328 594 42.1328C588.477 42.1328 584 46.8338 584 52.6328C584 58.4318 588.477 63.1328 594 63.1328Z" fill="white"/>
<path d="M970 63.1328C975.523 63.1328 980 58.4318 980 52.6328C980 46.8338 975.523 42.1328 970 42.1328C964.477 42.1328 960 46.8338 960 52.6328C960 58.4318 964.477 63.1328 970 63.1328Z" fill="white"/>
<path d="M1200 63.1328C1206.08 63.1328 1211 58.4318 1211 52.6328C1211 46.8338 1206.08 42.1328 1200 42.1328C1193.92 42.1328 1189 46.8338 1189 52.6328C1189 58.4318 1193.92 63.1328 1200 63.1328Z" fill="#1A0959"/>
<path d="M614.5 63.1328C620.299 63.1328 625 58.4318 625 52.6328C625 46.8338 620.299 42.1328 614.5 42.1328C608.701 42.1328 604 46.8338 604 52.6328C604 58.4318 608.701 63.1328 614.5 63.1328Z" fill="#1A0959"/>
<path d="M990.5 63.1328C996.299 63.1328 1001 58.4318 1001 52.6328C1001 46.8338 996.299 42.1328 990.5 42.1328C984.701 42.1328 980 46.8338 980 52.6328C980 58.4318 984.701 63.1328 990.5 63.1328Z" fill="#1A0959"/>
<path d="M615.26 63.9907C620.65 63.9907 624.997 68.3379 624.997 73.7285H626.389C626.389 67.5728 621.415 62.5996 615.26 62.5996V63.9907ZM605.522 73.7285C605.522 68.3379 609.869 63.9907 615.26 63.9907V62.5996C609.104 62.5996 604.131 67.5728 604.131 73.7285H605.522ZM615.26 83.4662C609.869 83.4662 605.522 79.119 605.522 73.7285H604.131C604.131 79.8841 609.104 84.8573 615.26 84.8573V83.4662ZM624.997 73.7285C624.997 79.119 620.65 83.4662 615.26 83.4662V84.8573C621.415 84.8573 626.389 79.8841 626.389 73.7285H624.997Z" fill="#1A0959"/>
<path d="M991.291 63.9907C996.681 63.9907 1001.03 68.3379 1001.03 73.7285H1002.42C1002.42 67.5728 997.447 62.5996 991.291 62.5996V63.9907ZM981.553 73.7285C981.553 68.3379 985.9 63.9907 991.291 63.9907V62.5996C985.135 62.5996 980.162 67.5728 980.162 73.7285H981.553ZM991.291 83.4662C985.9 83.4662 981.553 79.119 981.553 73.7285H980.162C980.162 79.8841 985.135 84.8573 991.291 84.8573V83.4662ZM1001.03 73.7285C1001.03 79.119 996.681 83.4662 991.291 83.4662V84.8573C997.447 84.8573 1002.42 79.8841 1002.42 73.7285H1001.03Z" fill="#1A0959"/>
<path d="M552.5 63.1328C558.299 63.1328 563 58.4318 563 52.6328C563 46.8338 558.299 42.1328 552.5 42.1328C546.701 42.1328 542 46.8338 542 52.6328C542 58.4318 546.701 63.1328 552.5 63.1328Z" fill="#1A0959"/>
<path d="M928.5 63.1328C934.299 63.1328 939 58.4318 939 52.6328C939 46.8338 934.299 42.1328 928.5 42.1328C922.701 42.1328 918 46.8338 918 52.6328C918 58.4318 922.701 63.1328 928.5 63.1328Z" fill="#1A0959"/>
<path d="M1263.5 63.1328C1269.3 63.1328 1274 58.4318 1274 52.6328C1274 46.8338 1269.3 42.1328 1263.5 42.1328C1257.7 42.1328 1253 46.8338 1253 52.6328C1253 58.4318 1257.7 63.1328 1263.5 63.1328Z" fill="#1A0959"/>
<path d="M573.5 63.1328C579.299 63.1328 584 58.4318 584 52.6328C584 46.8338 579.299 42.1328 573.5 42.1328C567.701 42.1328 563 46.8338 563 52.6328C563 58.4318 567.701 63.1328 573.5 63.1328Z" fill="#1A0959"/>
<path d="M949.5 63.1328C955.299 63.1328 960 58.4318 960 52.6328C960 46.8338 955.299 42.1328 949.5 42.1328C943.701 42.1328 939 46.8338 939 52.6328C939 58.4318 943.701 63.1328 949.5 63.1328Z" fill="#1A0959"/>
<path d="M1284.5 63.1328C1290.3 63.1328 1295 58.4318 1295 52.6328C1295 46.8338 1290.3 42.1328 1284.5 42.1328C1278.7 42.1328 1274 46.8338 1274 52.6328C1274 58.4318 1278.7 63.1328 1284.5 63.1328Z" fill="#1A0959"/>
<path d="M511.5 63.1328C517.299 63.1328 522 58.4318 522 52.6328C522 46.8338 517.299 42.1328 511.5 42.1328C505.701 42.1328 501 46.8338 501 52.6328C501 58.4318 505.701 63.1328 511.5 63.1328Z" fill="#1A0959"/>
<path d="M887.5 63.1328C893.299 63.1328 898 58.4318 898 52.6328C898 46.8338 893.299 42.1328 887.5 42.1328C881.701 42.1328 877 46.8338 877 52.6328C877 58.4318 881.701 63.1328 887.5 63.1328Z" fill="#1A0959"/>
<path d="M1137.5 63.1328C1143.3 63.1328 1148 58.4318 1148 52.6328C1148 46.8338 1143.3 42.1328 1137.5 42.1328C1131.7 42.1328 1127 46.8338 1127 52.6328C1127 58.4318 1131.7 63.1328 1137.5 63.1328Z" fill="#1A0959"/>
<path d="M532 63.1328C537.523 63.1328 542 58.4318 542 52.6328C542 46.8338 537.523 42.1328 532 42.1328C526.477 42.1328 522 46.8338 522 52.6328C522 58.4318 526.477 63.1328 532 63.1328Z" fill="#1A0959"/>
<path d="M908 63.1328C913.523 63.1328 918 58.4318 918 52.6328C918 46.8338 913.523 42.1328 908 42.1328C902.477 42.1328 898 46.8338 898 52.6328C898 58.4318 902.477 63.1328 908 63.1328Z" fill="#1A0959"/>
<path d="M1158 63.1328C1163.52 63.1328 1168 58.4318 1168 52.6328C1168 46.8338 1163.52 42.1328 1158 42.1328C1152.48 42.1328 1148 46.8338 1148 52.6328C1148 58.4318 1152.48 63.1328 1158 63.1328Z" fill="#1A0959"/>
<path d="M469 63.1328C475.075 63.1328 480 58.4318 480 52.6328C480 46.8338 475.075 42.1328 469 42.1328C462.925 42.1328 458 46.8338 458 52.6328C458 58.4318 462.925 63.1328 469 63.1328Z" fill="#1A0959"/>
<path d="M845.5 63.1328C851.299 63.1328 856 58.4318 856 52.6328C856 46.8338 851.299 42.1328 845.5 42.1328C839.701 42.1328 835 46.8338 835 52.6328C835 58.4318 839.701 63.1328 845.5 63.1328Z" fill="#1A0959"/>
<path d="M1095.5 63.1328C1101.3 63.1328 1106 58.4318 1106 52.6328C1106 46.8338 1101.3 42.1328 1095.5 42.1328C1089.7 42.1328 1085 46.8338 1085 52.6328C1085 58.4318 1089.7 63.1328 1095.5 63.1328Z" fill="#1A0959"/>
<path d="M490.5 63.1328C496.299 63.1328 501 58.4318 501 52.6328C501 46.8338 496.299 42.1328 490.5 42.1328C484.701 42.1328 480 46.8338 480 52.6328C480 58.4318 484.701 63.1328 490.5 63.1328Z" fill="#1A0959"/>
<path d="M866.5 63.1328C872.299 63.1328 877 58.4318 877 52.6328C877 46.8338 872.299 42.1328 866.5 42.1328C860.701 42.1328 856 46.8338 856 52.6328C856 58.4318 860.701 63.1328 866.5 63.1328Z" fill="#1A0959"/>
<path d="M1116.5 63.1328C1122.3 63.1328 1127 58.4318 1127 52.6328C1127 46.8338 1122.3 42.1328 1116.5 42.1328C1110.7 42.1328 1106 46.8338 1106 52.6328C1106 58.4318 1110.7 63.1328 1116.5 63.1328Z" fill="#1A0959"/>
<path d="M427.5 63.1328C433.299 63.1328 438 58.4318 438 52.6328C438 46.8338 433.299 42.1328 427.5 42.1328C421.701 42.1328 417 46.8338 417 52.6328C417 58.4318 421.701 63.1328 427.5 63.1328Z" fill="#1A0959"/>
<path d="M803.5 63.1328C809.299 63.1328 814 58.4318 814 52.6328C814 46.8338 809.299 42.1328 803.5 42.1328C797.701 42.1328 793 46.8338 793 52.6328C793 58.4318 797.701 63.1328 803.5 63.1328Z" fill="#1A0959"/>
<path d="M1054.5 63.1328C1060.3 63.1328 1065 58.4318 1065 52.6328C1065 46.8338 1060.3 42.1328 1054.5 42.1328C1048.7 42.1328 1044 46.8338 1044 52.6328C1044 58.4318 1048.7 63.1328 1054.5 63.1328Z" fill="#1A0959"/>
<path d="M448 63.1328C453.523 63.1328 458 58.4318 458 52.6328C458 46.8338 453.523 42.1328 448 42.1328C442.477 42.1328 438 46.8338 438 52.6328C438 58.4318 442.477 63.1328 448 63.1328Z" fill="#1A0959"/>
<path d="M824.5 63.1328C830.299 63.1328 835 58.4318 835 52.6328C835 46.8338 830.299 42.1328 824.5 42.1328C818.701 42.1328 814 46.8338 814 52.6328C814 58.4318 818.701 63.1328 824.5 63.1328Z" fill="#1A0959"/>
<path d="M1075 63.1328C1080.52 63.1328 1085 58.4318 1085 52.6328C1085 46.8338 1080.52 42.1328 1075 42.1328C1069.48 42.1328 1065 46.8338 1065 52.6328C1065 58.4318 1069.48 63.1328 1075 63.1328Z" fill="#1A0959"/>
<path d="M406.5 63.1328C412.299 63.1328 417 58.4318 417 52.6328C417 46.8338 412.299 42.1328 406.5 42.1328C400.701 42.1328 396 46.8338 396 52.6328C396 58.4318 400.701 63.1328 406.5 63.1328Z" fill="white"/>
<path d="M782.5 63.1328C788.299 63.1328 793 58.4318 793 52.6328C793 46.8338 788.299 42.1328 782.5 42.1328C776.701 42.1328 772 46.8338 772 52.6328C772 58.4318 776.701 63.1328 782.5 63.1328Z" fill="white"/>
<path d="M1033.5 63.1328C1039.3 63.1328 1044 58.4318 1044 52.6328C1044 46.8338 1039.3 42.1328 1033.5 42.1328C1027.7 42.1328 1023 46.8338 1023 52.6328C1023 58.4318 1027.7 63.1328 1033.5 63.1328Z" fill="white"/>
</svg>
