<svg width="138" height="24" viewBox="0 0 138 24" fill="none" xmlns="http://www.w3.org/2000/svg">
<path d="M136.762 15.7925C136.357 16.111 135.793 16.2847 135.228 16.2847C134.215 16.2847 133.607 15.6767 133.607 14.5621V9.2497H136.864V6.34017H133.607V3.15561H129.814V6.34017H127.802V9.2497H129.814V14.6055C129.814 17.7177 131.609 19.2955 134.692 19.2955C135.85 19.2955 136.994 19.035 137.776 18.4704L136.762 15.7925ZM121.144 19.2955C123.879 19.2955 126.051 18.0796 126.992 15.9952L124.053 14.3884C123.344 15.6478 122.302 16.1834 121.115 16.1834C119.204 16.1834 117.698 14.8516 117.698 12.5645C117.698 10.2774 119.204 8.94572 121.115 8.94572C122.302 8.94572 123.344 9.51025 124.053 10.7407L126.992 9.16285C126.051 7.02051 123.879 5.83353 121.144 5.83353C116.902 5.83353 113.862 8.62726 113.862 12.5501C113.862 16.4729 116.888 19.2955 121.144 19.2955ZM105.539 8.71411C107.233 8.71411 108.478 9.78528 108.738 11.4355H102.311C102.572 9.75633 103.817 8.71411 105.539 8.71411ZM112.314 12.6224C112.314 8.42461 109.346 5.84801 105.525 5.84801C101.544 5.84801 98.5621 8.65621 98.5621 12.5645C98.5621 16.4439 101.501 19.2811 106.017 19.2811C108.376 19.2811 110.186 18.5573 111.402 17.1677L109.39 14.9819C108.492 15.8359 107.493 16.2413 106.118 16.2413C104.135 16.2413 102.745 15.2425 102.384 13.6212H112.256C112.256 13.3172 112.314 12.9119 112.314 12.6224ZM91.1074 24C94.263 24 96.029 22.0893 96.029 19.0784V6.05066H92.2364V19.1074C92.2364 20.3957 91.6285 21.0036 90.6876 21.0036C90.0507 21.0036 89.5006 20.8299 89.0808 20.5404L88.0676 23.2762C88.8058 23.7829 89.9493 24 91.1074 24ZM94.1472 4.22678C95.5513 4.22678 96.5066 3.30036 96.5066 2.04101C96.5066 0.882992 95.5657 0 94.1472 0C92.7286 0 91.7877 0.926417 91.7877 2.11339C91.7877 3.30036 92.7286 4.22678 94.1472 4.22678ZM82.3932 16.1834C80.497 16.1834 79.0495 14.8227 79.0495 12.5645C79.0495 10.3064 80.5115 8.94572 82.3932 8.94572C84.275 8.94572 85.7226 10.3064 85.7226 12.5645C85.7226 14.8227 84.2895 16.1834 82.3932 16.1834ZM82.3932 19.2955C86.5476 19.2955 89.5585 16.5018 89.5585 12.579C89.5585 8.65621 86.5476 5.86248 82.3932 5.86248C78.2388 5.86248 75.2135 8.65621 75.2135 12.579C75.2135 16.5018 78.2388 19.2955 82.3932 19.2955ZM69.5537 7.75875V6.03619H65.9349V19.0929H69.7274V12.9409C69.7274 10.4367 71.117 9.3076 73.2014 9.3076C73.491 9.3076 73.737 9.33655 74.0555 9.35102V5.84801C72.029 5.84801 70.4801 6.4994 69.5537 7.75875ZM56.2509 16.1834C54.3546 16.1834 52.9216 14.8227 52.9216 12.5645C52.9216 10.3064 54.3546 8.94572 56.2509 8.94572C58.1472 8.94572 59.5802 10.3064 59.5802 12.5645C59.5802 14.8227 58.1472 16.1834 56.2509 16.1834ZM56.9023 5.84801C55.1508 5.84801 53.7467 6.41254 52.8058 7.54162V6.03619H49.187V23.7973H52.9795V17.7033C53.9493 18.7744 55.2811 19.2811 56.9168 19.2811C60.579 19.2811 63.4162 16.661 63.4162 12.5645C63.4162 8.46803 60.5645 5.84801 56.9023 5.84801ZM39.3438 13.7805H46.2051V10.7407H39.3438V13.7805ZM36.0579 19.0929L36.0145 2.11339H32.7865L26.5187 12.6659L20.1641 2.11339H16.9071V19.0929H20.5983V9.11942L25.5778 17.2979H27.3583L32.3522 8.90229L32.3812 19.0929H36.0579ZM5.4427 19.0929H9.37998V5.31242H14.8227V2.11339H0V5.31242H5.4427V19.0929Z" fill="#1A0959"/>
</svg>
